<svg width="17" height="16" viewBox="0 0 17 16" fill="none" xmlns="http://www.w3.org/2000/svg">
<path d="M7.47441 11.3419C7.49947 11.417 7.5063 11.4971 7.49436 11.5754C7.48241 11.6537 7.45202 11.7281 7.40569 11.7924C7.35936 11.8566 7.29842 11.909 7.22789 11.9451C7.15736 11.9812 7.07927 12 7.00004 12H2.00004C1.92081 12 1.84271 11.9812 1.77218 11.9451C1.70165 11.909 1.64071 11.8566 1.59439 11.7924C1.54806 11.7281 1.51767 11.6537 1.50572 11.5754C1.49377 11.4971 1.50061 11.417 1.52566 11.3419L4.02566 3.84188C4.05883 3.7423 4.1225 3.65568 4.20764 3.5943C4.29278 3.53292 4.39508 3.49989 4.50004 3.49989C4.605 3.49989 4.70729 3.53292 4.79244 3.5943C4.87758 3.65568 4.94124 3.7423 4.97441 3.84188L7.47441 11.3419ZM13.5 4.75C13.5 4.10721 13.3094 3.47886 12.9523 2.9444C12.5952 2.40994 12.0876 1.99338 11.4938 1.74739C10.8999 1.50141 10.2464 1.43705 9.61599 1.56245C8.98556 1.68785 8.40646 1.99738 7.95194 2.4519C7.49742 2.90643 7.18789 3.48552 7.06249 4.11596C6.93708 4.7464 7.00144 5.39986 7.24743 5.99372C7.49341 6.58758 7.90997 7.09516 8.44443 7.45228C8.97889 7.80939 9.60725 8 10.25 8C11.1117 7.99901 11.9378 7.65628 12.547 7.047C13.1563 6.43772 13.499 5.61165 13.5 4.75ZM14.5 9H9.00004C8.86743 9 8.74025 9.05268 8.64648 9.14645C8.55272 9.24022 8.50004 9.36739 8.50004 9.5V13C8.50004 13.1326 8.55272 13.2598 8.64648 13.3536C8.74025 13.4473 8.86743 13.5 9.00004 13.5H14.5C14.6326 13.5 14.7598 13.4473 14.8536 13.3536C14.9474 13.2598 15 13.1326 15 13V9.5C15 9.36739 14.9474 9.24022 14.8536 9.14645C14.7598 9.05268 14.6326 9 14.5 9Z" fill="#085235"/>
</svg>
