<svg width="52" height="52" viewBox="0 0 52 52" fill="none" xmlns="http://www.w3.org/2000/svg">
<path fill-rule="evenodd" clip-rule="evenodd" d="M25.9984 51.6C19.1984 51.6 12.6984 48.9 7.89844 44.1C3.09844 39.3 0.398438 32.8 0.398438 26C0.398438 19.2 3.09844 12.7 7.89844 7.90002C12.6984 3.10002 19.1984 0.400024 25.9984 0.400024C32.7984 0.400024 39.2984 3.10002 44.0984 7.90002C48.8984 12.7 51.5984 19.2 51.5984 26C51.5984 32.8 48.8984 39.3 44.0984 44.1C39.2984 48.9 32.7984 51.6 25.9984 51.6ZM25.9984 48.3C13.6984 48.3 3.69844 38.3 3.69844 26C3.69844 13.7 13.6984 3.70002 25.9984 3.70002C38.2984 3.70002 48.2984 13.7 48.2984 26C48.2984 38.3 38.2984 48.3 25.9984 48.3ZM25.9984 5.20002C14.4984 5.20002 5.19844 14.5 5.19844 26C5.19844 37.5 14.4984 46.8 25.9984 46.8C37.4984 46.8 46.7984 37.5 46.7984 26C46.7984 14.5 37.4984 5.20002 25.9984 5.20002ZM28.7984 17.2C28.4984 17.2 28.2984 17.1 28.0984 16.8L25.8984 11.3C25.6984 11 25.8984 10.5 26.2984 10.4C26.6984 10.2 27.0984 10.4 27.2984 10.8L29.4984 16.2C29.6984 16.6 29.4984 17 29.0984 17.2C28.9984 17.2 28.8984 17.2 28.7984 17.2ZM34.5984 17.2C34.4984 17.2 34.3984 17.2 34.2984 17.2C33.8984 17 33.7984 16.6 33.8984 16.2L36.1984 10.8C36.3984 10.4 36.7984 10.2 37.1984 10.4C37.5984 10.5 37.6984 11 37.5984 11.3L35.2984 16.8C35.1984 17.1 34.8984 17.2 34.5984 17.2ZM31.6984 17.2C31.2984 17.2 30.9984 16.9 30.9984 16.5V10.8C30.9984 10.4 31.2984 10 31.6984 10C32.0984 10 32.4984 10.4 32.4984 10.8V16.5C32.4984 16.9 32.0984 17.2 31.6984 17.2ZM25.0984 42C23.2984 42 21.8984 41.5 19.5984 40.8C19.2984 40.8 18.9984 40.7 18.7984 40.6C18.3984 40.9 18.0984 41.1 17.6984 41.2L15.7984 41.7C15.5984 41.8 15.3984 41.8 15.1984 41.8C13.9984 41.8 12.9984 41 12.6984 39.9L9.79844 29.1C9.39844 27.7 10.2984 26.3 11.5984 25.9L13.3984 25.5C13.6984 25.4 13.8984 25.4 14.0984 25.4C14.4984 25.4 14.7984 25.5 15.1984 25.6C16.3984 24.7 17.6984 24.2 18.6984 23.8C19.8984 23.4 19.8984 22.6 19.5984 20.5C19.3984 18.9 19.1984 16.8 20.4984 15.1C21.1984 14.2 22.3984 13.8 23.4984 14C24.4984 14.2 25.2984 14.9 25.4984 15.9C26.0984 18.1 26.6984 20.3 27.2984 22.4L38.5984 19.4C39.2984 19.2 40.0984 19.3 40.7984 19.7C41.4984 20.1 41.9984 20.7 42.1984 21.5C42.3984 22.2 42.2984 23 41.8984 23.7C41.4984 24.4 40.8984 24.9 40.0984 25.1L36.5984 26C36.8984 26.4 37.0984 26.8 37.2984 27.3C37.5984 28.6 36.9984 29.9 35.8984 30.6C36.2984 30.9 36.5984 31.4 36.6984 31.9C36.8984 32.7 36.7984 33.5 36.3984 34.1C35.9984 34.8 35.3984 35.3 34.5984 35.5H34.4984C34.7984 35.9 35.0984 36.3 35.1984 36.8C35.5984 38.4 34.6984 40 33.0984 40.4L31.3984 40.9C28.4984 41.6 26.6984 42 25.0984 42ZM17.8984 39.3C17.9984 39.1 18.0984 38.8 17.9984 38.5L15.0984 27.7V27.6V27.5H14.9984V27.4V27.3H14.8984C14.8984 27.2 14.7984 27.2 14.6984 27.1C14.4984 27 14.2984 26.9 14.0984 26.9C13.9984 26.9 13.8984 26.9 13.7984 26.9L11.9984 27.4C11.4984 27.6 11.0984 28.1 11.2984 28.7L14.1984 39.5C14.2984 40 14.6984 40.3 15.1984 40.3C15.2984 40.3 15.3984 40.3 15.3984 40.2L17.2984 39.7C17.4984 39.7 17.6984 39.5 17.8984 39.3ZM19.4984 39.2L19.9984 39.4C24.0984 40.6 25.1984 41 31.0984 39.4L32.6984 38.9C33.4984 38.7 33.8984 38 33.6984 37.2C33.5984 36.8 33.3984 36.5 33.0984 36.4C32.6984 36.2 32.3984 36.1 31.9984 36.2C31.5984 36.3 31.1984 36.1 31.0984 35.7C30.9984 35.3 31.1984 34.9 31.5984 34.8L34.1984 34.1C34.5984 34 34.8984 33.7 35.0984 33.4C35.2984 33.1 35.2984 32.7 35.1984 32.3C34.9984 31.6 34.2984 31.1 33.4984 31.3L30.8984 32C30.4984 32.1 30.0984 31.9 29.9984 31.5C29.8984 31.1 30.0984 30.7 30.4984 30.6L34.7984 29.4C35.5984 29.2 35.9984 28.4 35.7984 27.7C35.6984 27.3 35.4984 27 35.1984 26.8C34.7984 26.6 34.3984 26.6 34.0984 26.7L29.7984 27.8C29.3984 27.9 28.8984 27.7 28.7984 27.3C28.6984 26.9 28.9984 26.5 29.3984 26.4L39.6984 23.6C40.0984 23.5 40.3984 23.3 40.5984 22.9C40.7984 22.6 40.7984 22.2 40.6984 21.9C40.5984 21.5 40.3984 21.2 40.0984 21C39.6984 20.8 39.3984 20.8 38.9984 20.9L26.9984 24.1C26.7984 24.2 26.5984 24.1 26.3984 24C26.1984 23.9 26.0984 23.8 25.9984 23.6L25.7984 22.8C25.2984 20.7 24.6984 18.5 24.0984 16.3C23.8984 15.8 23.4984 15.6 23.1984 15.5C22.6984 15.4 22.0984 15.6 21.6984 16C20.6984 17.3 20.8984 18.8 21.0984 20.4C21.3984 22.2 21.5984 24.3 19.1984 25.2C18.3984 25.5 17.2984 26 16.2984 26.6C16.3984 26.8 16.4984 27 16.5984 27.3L19.4984 38.1V38.2V38.3C19.5984 38.6 19.5984 38.9 19.4984 39.2Z" fill="#E86900"/>
</svg>
