<svg width="62" height="62" viewBox="0 0 62 62" fill="none" xmlns="http://www.w3.org/2000/svg">
<path d="M41.9376 37.5625C40.6723 37.5625 39.4462 38.0012 38.4682 38.8039C37.4901 39.6065 36.8206 40.7235 36.5738 41.9645C36.327 43.2054 36.5181 44.4936 37.1146 45.6094C37.7111 46.7252 38.676 47.5997 39.845 48.0838C41.014 48.568 42.3147 48.6318 43.5254 48.2644C44.7362 47.897 45.7821 47.1212 46.4849 46.0691C47.1877 45.017 47.504 43.7537 47.3799 42.4946C47.2557 41.2354 46.6988 40.0583 45.804 39.1637C45.2974 38.6545 44.6948 38.2507 44.0312 37.9759C43.3675 37.701 42.6559 37.5605 41.9376 37.5625ZM44.2574 39.1637L45.804 40.7103L45.0307 41.4847L43.4841 39.9381L44.2574 39.1637ZM39.6177 39.1637L40.391 39.9381L38.8445 41.4847L38.0712 40.7103L39.6177 39.1637ZM39.6177 46.8987L38.0712 45.3522L38.8445 44.5778L40.391 46.1244L39.6177 46.8987ZM46.3126 44.125H43.0313V47.4062H40.8438V44.125H37.5626V41.9375H40.8438V38.6562H43.0313V41.9375H46.3126V44.125Z" fill="#E86900"/>
<path d="M34.2797 43.0312C34.2786 41.4484 34.769 39.9044 35.6832 38.6122C36.5974 37.3201 37.8902 36.3438 39.3831 35.818C39.9407 34.1943 41.0464 32.8156 42.5102 31.9188L41.5564 30.9639C40.6474 32.8353 39.4807 34.57 38.0903 36.1177C37.9879 36.2284 37.8638 36.3167 37.7256 36.3771C37.5874 36.4375 37.4383 36.4687 37.2875 36.4688H33.8422C33.6731 36.4687 33.5062 36.4295 33.3548 36.3542C33.2034 36.2788 33.0716 36.1694 32.9696 36.0344C32.8676 35.8995 32.7983 35.7428 32.7672 35.5765C32.736 35.4103 32.7438 35.2391 32.79 35.0764C33.0571 34.1048 33.1903 33.1014 33.1859 32.0938C33.1859 28.7556 31.8898 26.625 30.9984 26.625C30.107 26.625 28.8109 28.7556 28.8109 32.0938C28.8066 33.1014 28.9398 34.1048 29.2069 35.0764C29.253 35.2391 29.2609 35.4103 29.2297 35.5765C29.1985 35.7428 29.1292 35.8995 29.0273 36.0344C28.9253 36.1694 28.7934 36.2788 28.642 36.3542C28.4906 36.4295 28.3238 36.4687 28.1547 36.4688H24.7094C24.5413 36.4659 24.3761 36.4239 24.227 36.3463C23.2586 36.6887 22.213 36.7494 21.2115 36.5213C20.21 36.2933 19.2937 35.7858 18.5691 35.0578L13.1583 29.6383C12.7472 30.0366 12.2767 30.3687 11.7637 30.6227C11.5277 31.3525 11.4045 32.1142 11.3984 32.8813C11.4016 34.242 11.7658 35.5775 12.4539 36.7514C13.142 37.9253 14.1294 38.8955 15.3152 39.563C15.4415 39.6342 15.5525 39.7299 15.6415 39.8445C15.7306 39.9591 15.7959 40.0902 15.8338 40.2303C15.8717 40.3703 15.8813 40.5165 15.8621 40.6603C15.8429 40.8042 15.7953 40.9427 15.722 41.068C15.0353 42.2325 14.6752 43.5606 14.6797 44.9125C14.6787 46.4051 15.1143 47.8654 15.9329 49.1135C16.7514 50.3616 17.9172 51.343 19.2866 51.9369C20.6559 52.5307 22.1691 52.711 23.6397 52.4556C25.1103 52.2002 26.474 51.5202 27.563 50.4994C27.7481 50.3273 27.9871 50.2247 28.2393 50.209C28.4916 50.1932 28.7415 50.2653 28.9466 50.413C29.8855 51.0987 31.017 51.4704 32.1797 51.475C33.1322 51.4776 34.0688 51.2298 34.8955 50.7567C35.7222 50.2835 36.4102 49.6015 36.8905 48.7789C36.7669 48.6695 36.6411 48.5602 36.523 48.4508C35.8091 47.7408 35.2432 46.8961 34.8582 45.9659C34.4731 45.0356 34.2765 44.0381 34.2797 43.0312ZM29.9977 48.1883H29.9528C29.8008 48.1817 26.6584 47.9859 25.883 42.9164C25.6883 43.11 25.5078 43.2883 25.3022 43.4939C24.8222 43.9864 24.247 44.3761 23.6117 44.6393C22.9763 44.9026 22.2941 45.0338 21.6064 45.0252C20.0736 44.9848 18.5866 44.4941 17.3309 43.6142C17.0941 43.4457 16.9339 43.19 16.8856 42.9033C16.8373 42.6167 16.9048 42.3226 17.0734 42.0857C17.2419 41.8489 17.4976 41.6887 17.7843 41.6403C18.0709 41.592 18.365 41.6596 18.6019 41.8281C18.7255 41.9156 21.7191 43.9861 23.7556 41.9452C24.6186 41.0811 26.828 38.9177 27.0795 38.6639C27.2845 38.4585 27.5626 38.343 27.8527 38.3427C28.1429 38.3424 28.4213 38.4573 28.6266 38.6623C28.832 38.8672 28.9476 39.1453 28.9479 39.4355C28.9482 39.7256 28.8332 40.004 28.6283 40.2094C28.4183 40.4205 28.1733 40.6589 27.9075 40.917C28.0081 44.7277 29.3545 45.9166 30.0808 46.003C30.364 46.0357 30.6238 46.1758 30.8069 46.3943C30.99 46.6128 31.0824 46.8931 31.0652 47.1777C31.0488 47.4502 30.9293 47.7062 30.7311 47.8939C30.5329 48.0816 30.2706 48.1868 29.9977 48.1883Z" fill="#E86900"/>
<path d="M26.7967 34.2812C26.6813 33.5578 26.6239 32.8263 26.625 32.0938C26.625 27.7286 28.5063 24.4375 31 24.4375C33.4937 24.4375 35.375 27.7286 35.375 32.0938C35.3761 32.8263 35.3187 33.5578 35.2033 34.2812H36.7969C39.8757 30.572 41.6782 25.9698 41.9375 21.1562C41.9375 18.2554 40.7852 15.4734 38.734 13.4223C36.6828 11.3711 33.9008 10.2188 31 10.2188C28.0992 10.2188 25.3172 11.3711 23.266 13.4223C21.2148 15.4734 20.0625 18.2554 20.0625 21.1562C20.3218 25.9698 22.1243 30.572 25.2031 34.2812H26.7967ZM32.0938 23.3438H29.9062V21.1562H32.0938V23.3438ZM34.2812 16.7812H38.6562V18.9688H34.2812V16.7812ZM29.9062 12.4062H32.0938V14.5938H29.9062V12.4062ZM31 15.6875C31.4326 15.6875 31.8556 15.8158 32.2153 16.0562C32.575 16.2965 32.8554 16.6382 33.021 17.0379C33.1866 17.4376 33.2299 17.8774 33.1455 18.3018C33.0611 18.7261 32.8527 19.1159 32.5468 19.4218C32.2409 19.7277 31.8511 19.9361 31.4268 20.0205C31.0024 20.1049 30.5626 20.0616 30.1629 19.896C29.7632 19.7304 29.4215 19.45 29.1812 19.0903C28.9408 18.7306 28.8125 18.3076 28.8125 17.875C28.8125 17.2948 29.043 16.7384 29.4532 16.3282C29.8634 15.918 30.4198 15.6875 31 15.6875ZM23.3438 16.7812H27.7188V18.9688H23.3438V16.7812Z" fill="#E86900"/>
<path d="M45.1691 33.1131C44.2362 33.3507 43.386 33.8385 42.7103 34.5241C42.4535 34.7856 42.2234 35.0722 42.0234 35.3794C44.0244 35.3985 45.9381 36.2015 47.3535 37.6161C48.7689 39.0307 49.573 40.9439 49.5933 42.9449C49.9008 42.7449 50.1873 42.5144 50.4486 42.2569C51.1311 41.585 51.6177 40.7399 51.8563 39.8124C52.1077 38.8861 52.1104 37.9099 51.8641 36.9823C51.6178 36.0547 51.1312 35.2085 50.4533 34.529C49.7755 33.8495 48.9305 33.3608 48.0035 33.1122C47.0765 32.8637 46.1003 32.864 45.1734 33.1131H45.1691ZM49.6709 36.8439L48.1244 35.2974L48.8977 34.5241L50.4442 36.0706L49.6709 36.8439Z" fill="#E86900"/>
<path d="M12.1105 27.4278C12.1952 27.2837 12.3118 27.1609 12.4513 27.0688C12.5908 26.9767 12.7496 26.9179 12.9154 26.8968C13.0812 26.8757 13.2497 26.8928 13.4078 26.9469C13.566 27.0011 13.7096 27.0907 13.8277 27.2091L20.1168 33.508C20.4367 33.8257 20.8187 34.0741 21.2389 34.2376C21.6591 34.4012 22.1086 34.4763 22.5591 34.4584C21.6743 33.2311 20.9054 31.9243 20.2622 30.5548L14.7049 24.9997C13.2097 23.5078 10.0958 26.5167 10.0641 26.5484C9.8577 26.7475 9.58133 26.8576 9.29455 26.8549C9.00777 26.8522 8.73353 26.737 8.53088 26.534C8.32823 26.3311 8.21339 26.0567 8.21111 25.7699C8.20882 25.4831 8.31926 25.2069 8.51865 25.0008C9.58057 23.9187 10.8806 23.0996 12.3151 22.6087L10.0608 20.3545C9.8616 20.1482 9.75136 19.872 9.75385 19.5852C9.75634 19.2984 9.87137 19.0241 10.0742 18.8213C10.277 18.6185 10.5513 18.5035 10.8381 18.501C11.1248 18.4985 11.4011 18.6087 11.6074 18.808L13.7282 20.9298C14.0763 19.8424 14.6758 18.8524 15.4782 18.0401C15.6842 17.8406 15.9603 17.73 16.2471 17.732C16.5339 17.7341 16.8084 17.8487 17.0115 18.0513C17.2146 18.2538 17.33 18.5279 17.3329 18.8147C17.3358 19.1015 17.2259 19.378 17.0269 19.5845C16.9285 19.6841 14.7377 21.9405 16.2515 23.4542L18.5101 25.7128C18.1156 24.2251 17.903 22.6951 17.8768 21.1562C17.8789 19.2182 18.3135 17.305 19.1488 15.5562C18.5219 15.0204 17.7165 14.7398 16.8923 14.77C16.0682 14.8002 15.2855 15.139 14.6994 15.7192L14.5091 15.9653C14.362 16.1478 14.1601 16.2782 13.9333 16.3373C13.7064 16.3964 13.4666 16.381 13.2491 16.2934C12.4526 15.9753 11.5802 15.8978 10.74 16.0704C9.89981 16.2431 9.12872 16.6584 8.5222 17.265C7.91569 17.8715 7.50037 18.6426 7.32769 19.4827C7.15501 20.3229 7.23254 21.1953 7.55068 21.9919C7.63771 22.209 7.65281 22.4484 7.59375 22.6748C7.53469 22.9012 7.40459 23.1027 7.22256 23.2497C7.22256 23.2497 6.98631 23.4323 6.93271 23.4816C6.33295 24.1005 6.00076 24.9305 6.00793 25.7923C6.01509 26.6541 6.36103 27.4785 6.97099 28.0873C7.59713 28.6834 8.42852 29.0159 9.29303 29.0159C10.1575 29.0159 10.9889 28.6834 11.6151 28.0873C11.8047 27.887 11.9709 27.6657 12.1105 27.4278Z" fill="#E86900"/>
<path d="M31 0.375C24.943 0.375 19.0219 2.17113 13.9857 5.53624C8.94942 8.90136 5.02414 13.6843 2.7062 19.2803C0.388269 24.8763 -0.218208 31.034 0.963465 36.9746C2.14514 42.9153 5.06188 48.3722 9.34487 52.6551C13.6279 56.9381 19.0847 59.8549 25.0254 61.0365C30.966 62.2182 37.1237 61.6117 42.7197 59.2938C48.3157 56.9759 53.0987 53.0506 56.4638 48.0143C59.8289 42.9781 61.625 37.0571 61.625 31C61.6157 22.8806 58.3862 15.0964 52.6449 9.35509C46.9036 3.61379 39.1194 0.384263 31 0.375ZM53.7763 40.9531C53.4072 42.0261 52.7988 43.001 51.9972 43.804C51.1957 44.6071 50.2219 45.2173 49.1497 45.5884C48.7964 46.5938 48.2366 47.514 47.5063 48.29C46.7759 49.066 45.8913 49.6806 44.9093 50.0942C43.9272 50.5078 42.8694 50.7113 41.804 50.6916C40.7386 50.6719 39.6891 50.4295 38.723 49.9798C37.6921 51.6844 36.0357 52.9185 34.1074 53.4186C32.1791 53.9186 30.1317 53.6451 28.4024 52.6562C26.9507 53.796 25.2076 54.5043 23.3723 54.7002C21.5371 54.896 19.6838 54.5715 18.0243 53.7637C16.3648 52.9559 14.9661 51.6975 13.9881 50.1322C13.0101 48.567 12.4922 46.7582 12.4938 44.9125C12.4892 43.5294 12.7813 42.1613 13.3502 40.9006C11.8414 39.8291 10.6657 38.3535 9.95851 36.6434C9.25129 34.9333 9.04123 33.0583 9.35251 31.2341C9.33173 31.2341 9.31095 31.2406 9.28908 31.2406C8.22585 31.241 7.18559 30.9313 6.29559 30.3497C5.40558 29.768 4.70443 28.9395 4.27793 27.9656C3.85143 26.9917 3.71808 25.9145 3.89419 24.866C4.07031 23.8175 4.54826 22.843 5.26955 22.0619C4.97333 20.9483 4.97501 19.7765 5.27442 18.6639C5.57384 17.5512 6.16047 16.5368 6.97551 15.7223C7.79055 14.9078 8.80537 14.3219 9.91824 14.0232C11.0311 13.7245 12.2029 13.7236 13.3163 14.0206C14.252 13.1685 15.4534 12.6657 16.7172 12.5974C17.9809 12.529 19.2295 12.8993 20.2517 13.6455C21.6663 11.6152 23.6268 10.0269 25.9063 9.06428C28.1858 8.10163 30.6913 7.80394 33.1329 8.20565C35.5746 8.60737 37.8526 9.69207 39.7036 11.3343C41.5545 12.9765 42.9028 15.1092 43.5924 17.4856C43.6985 17.3483 43.8117 17.2165 43.9314 17.0908C44.4285 16.6039 45.0185 16.2219 45.6661 15.9675C46.3138 15.7131 47.006 15.5915 47.7016 15.6098H47.7103C49.9418 15.6844 52.0546 16.6326 53.5936 18.2502C55.2133 19.7913 56.1617 21.9077 56.2339 24.1422C56.2508 25.2579 55.9172 26.3509 55.2802 27.267C56.3823 27.9516 57.2909 28.9067 57.9196 30.0416C58.5484 31.1765 58.8762 32.4534 58.872 33.7508C58.8784 35.3318 58.3906 36.8752 57.477 38.1655C56.5634 39.4558 55.2696 40.4285 53.7763 40.9477V40.9531Z" fill="#E86900"/>
<path d="M55.0859 29.8833C54.5154 29.3051 53.8224 28.8622 53.0579 28.5873C52.2935 28.3125 51.4771 28.2126 50.669 28.2951C49.8609 28.3776 49.0815 28.6403 48.3884 29.064C47.6953 29.4876 47.106 30.0614 46.6641 30.743C48.6653 30.7596 50.5799 31.562 51.9949 32.9772C53.41 34.3925 54.2121 36.3072 54.2284 38.3085C54.5377 38.1074 54.8261 37.8758 55.0892 37.6172C56.1132 36.5908 56.6882 35.2001 56.6882 33.7502C56.6882 32.3004 56.1132 30.9097 55.0892 29.8833H55.0859ZM54.3116 32.2031L52.7661 30.6577L53.5394 29.8833L55.087 31.431L54.3116 32.2031Z" fill="#E86900"/>
<path d="M45.8037 28.3367C46.5132 27.6239 47.3571 27.0589 48.2864 26.6744C49.2157 26.2899 50.2121 26.0935 51.2178 26.0967C51.8898 26.0988 52.5586 26.1885 53.2073 26.3636C53.4867 26.0664 53.7046 25.717 53.8485 25.3354C53.9925 24.9539 54.0597 24.5476 54.0462 24.14C53.9192 22.5011 53.211 20.9614 52.0494 19.7984C50.8877 18.6353 49.3489 17.9253 47.7102 17.7962H47.7036C47.296 17.7825 46.8898 17.8495 46.5082 17.9933C46.1266 18.1371 45.7772 18.3548 45.48 18.6341C45.0103 19.2085 44.7171 19.9068 44.6358 20.6444C44.5544 21.3819 44.6885 22.1273 45.0217 22.7903C45.0995 22.9883 45.1178 23.2047 45.0745 23.4129C45.0312 23.6212 44.9281 23.8123 44.7778 23.9628L43.6578 25.0828C43.3702 26.354 42.9844 27.601 42.5039 28.8125L44.2703 30.5625C44.6445 29.735 45.1639 28.9812 45.8037 28.3367ZM47.4061 18.9687C48.5373 19.045 49.5966 19.5509 50.3669 20.383L48.8203 21.9295C48.4459 21.5111 47.9365 21.2374 47.3809 21.1562L47.4061 18.9687Z" fill="#E86900"/>
</svg>
