<svg width="20" height="18" viewBox="0 0 20 18" fill="none" xmlns="http://www.w3.org/2000/svg">
<path d="M18.25 3H14.5V2.25C14.5 1.65326 14.2629 1.08097 13.841 0.65901C13.419 0.237053 12.8467 0 12.25 0H7.75C7.15326 0 6.58097 0.237053 6.15901 0.65901C5.73705 1.08097 5.5 1.65326 5.5 2.25V3H1.75C1.35218 3 0.970644 3.15804 0.68934 3.43934C0.408035 3.72064 0.25 4.10218 0.25 4.5V16.5C0.25 16.8978 0.408035 17.2794 0.68934 17.5607C0.970644 17.842 1.35218 18 1.75 18H18.25C18.6478 18 19.0294 17.842 19.3107 17.5607C19.592 17.2794 19.75 16.8978 19.75 16.5V4.5C19.75 4.10218 19.592 3.72064 19.3107 3.43934C19.0294 3.15804 18.6478 3 18.25 3ZM12.25 11.25H10.75V12.75C10.75 12.9489 10.671 13.1397 10.5303 13.2803C10.3897 13.421 10.1989 13.5 10 13.5C9.80109 13.5 9.61032 13.421 9.46967 13.2803C9.32902 13.1397 9.25 12.9489 9.25 12.75V11.25H7.75C7.55109 11.25 7.36032 11.171 7.21967 11.0303C7.07902 10.8897 7 10.6989 7 10.5C7 10.3011 7.07902 10.1103 7.21967 9.96967C7.36032 9.82902 7.55109 9.75 7.75 9.75H9.25V8.25C9.25 8.05109 9.32902 7.86032 9.46967 7.71967C9.61032 7.57902 9.80109 7.5 10 7.5C10.1989 7.5 10.3897 7.57902 10.5303 7.71967C10.671 7.86032 10.75 8.05109 10.75 8.25V9.75H12.25C12.4489 9.75 12.6397 9.82902 12.7803 9.96967C12.921 10.1103 13 10.3011 13 10.5C13 10.6989 12.921 10.8897 12.7803 11.0303C12.6397 11.171 12.4489 11.25 12.25 11.25ZM13 3H7V2.25C7 2.05109 7.07902 1.86032 7.21967 1.71967C7.36032 1.57902 7.55109 1.5 7.75 1.5H12.25C12.4489 1.5 12.6397 1.57902 12.7803 1.71967C12.921 1.86032 13 2.05109 13 2.25V3Z" fill="#E86900"/>
</svg>
