<svg width="24" height="25" viewBox="0 0 24 25" fill="none" xmlns="http://www.w3.org/2000/svg">
<g clip-path="url(#clip0_450_4836)">
<path d="M25.5385 -3H-1.53846C-2.1913 -3 -2.8174 -2.74066 -3.27903 -2.27903C-3.74066 -1.8174 -4 -1.1913 -4 -0.538461V26.5385C-4 27.1913 -3.74066 27.8174 -3.27903 28.279C-2.8174 28.7407 -2.1913 29 -1.53846 29H25.5385C26.1913 29 26.8174 28.7407 27.279 28.279C27.7407 27.8174 28 27.1913 28 26.5385V-0.538461C28 -1.1913 27.7407 -1.8174 27.279 -2.27903C26.8174 -2.74066 26.1913 -3 25.5385 -3ZM7.07692 20.3846C7.07692 20.711 6.94725 21.0241 6.71644 21.2549C6.48563 21.4857 6.17257 21.6154 5.84615 21.6154C5.51973 21.6154 5.20668 21.4857 4.97587 21.2549C4.74506 21.0241 4.61539 20.711 4.61539 20.3846V10.5385C4.61539 10.212 4.74506 9.89899 4.97587 9.66818C5.20668 9.43736 5.51973 9.30769 5.84615 9.30769C6.17257 9.30769 6.48563 9.43736 6.71644 9.66818C6.94725 9.89899 7.07692 10.212 7.07692 10.5385V20.3846ZM5.84615 8.07692C5.48102 8.07692 5.12409 7.96865 4.82049 7.76579C4.51689 7.56293 4.28026 7.2746 4.14053 6.93726C4.0008 6.59992 3.96424 6.22872 4.03547 5.8706C4.10671 5.51248 4.28254 5.18353 4.54073 4.92534C4.79891 4.66715 5.12787 4.49132 5.48599 4.42009C5.84411 4.34885 6.21531 4.38541 6.55265 4.52515C6.88999 4.66488 7.17832 4.9015 7.38118 5.2051C7.58403 5.5087 7.69231 5.86563 7.69231 6.23077C7.69231 6.7204 7.4978 7.18998 7.15158 7.5362C6.80536 7.88242 6.33578 8.07692 5.84615 8.07692ZM20.6154 20.3846C20.6154 20.711 20.4857 21.0241 20.2549 21.2549C20.0241 21.4857 19.711 21.6154 19.3846 21.6154C19.0582 21.6154 18.7451 21.4857 18.5143 21.2549C18.2835 21.0241 18.1538 20.711 18.1538 20.3846V14.8462C18.1538 14.0301 17.8297 13.2475 17.2526 12.6704C16.6756 12.0934 15.893 11.7692 15.0769 11.7692C14.2609 11.7692 13.4782 12.0934 12.9012 12.6704C12.3242 13.2475 12 14.0301 12 14.8462V20.3846C12 20.711 11.8703 21.0241 11.6395 21.2549C11.4087 21.4857 11.0957 21.6154 10.7692 21.6154C10.4428 21.6154 10.1298 21.4857 9.89895 21.2549C9.66813 21.0241 9.53846 20.711 9.53846 20.3846V10.5385C9.53999 10.237 9.65211 9.94657 9.85356 9.72228C10.055 9.49799 10.3318 9.35544 10.6313 9.32167C10.9309 9.2879 11.2325 9.36526 11.4788 9.53907C11.7251 9.71288 11.8991 9.97105 11.9677 10.2646C12.8003 9.69981 13.771 9.37246 14.7756 9.31772C15.7802 9.26299 16.7808 9.48293 17.6698 9.95394C18.5588 10.4249 19.3028 11.1292 19.8217 11.9911C20.3407 12.8531 20.6151 13.8401 20.6154 14.8462V20.3846Z" fill="#42454D"/>
</g>
<defs>
<clipPath id="clip0_450_4836">
<rect y="0.5" width="24" height="24" rx="4" fill="white"/>
</clipPath>
</defs>
</svg>
