<svg width="24" height="25" viewBox="0 0 24 25" fill="none" xmlns="http://www.w3.org/2000/svg">
<circle cx="12" cy="12.5" r="12" fill="#42454D"/>
<path d="M18.5 9.5V12C18.5 12.1326 18.4473 12.2598 18.3536 12.3536C18.2598 12.4473 18.1326 12.5 18 12.5C16.9555 12.5024 15.926 12.2513 15 11.7681V14.25C15 15.5098 14.4996 16.718 13.6088 17.6088C12.718 18.4996 11.5098 19 10.25 19C8.99022 19 7.78204 18.4996 6.89124 17.6088C6.00044 16.718 5.5 15.5098 5.5 14.25C5.5 11.9437 7.18187 9.905 9.4125 9.5075C9.48446 9.49471 9.55835 9.49785 9.62896 9.5167C9.69958 9.53555 9.7652 9.56966 9.82121 9.61661C9.87722 9.66356 9.92226 9.72223 9.95315 9.78847C9.98404 9.85471 10 9.92691 10 10V12.6681C10 12.7628 9.97321 12.8554 9.92265 12.9354C9.87209 13.0154 9.79987 13.0794 9.71438 13.12C9.51227 13.2158 9.33959 13.3642 9.21434 13.5495C9.08909 13.7348 9.01587 13.9503 9.0023 14.1736C8.98873 14.3969 9.03533 14.6197 9.13721 14.8188C9.2391 15.0179 9.39255 15.1861 9.58156 15.3057C9.77057 15.4253 9.98822 15.492 10.2118 15.4988C10.4354 15.5057 10.6567 15.4524 10.8526 15.3446C11.0486 15.2367 11.212 15.0783 11.3259 14.8858C11.4398 14.6932 11.4999 14.4737 11.5 14.25V6C11.5 5.86739 11.5527 5.74021 11.6464 5.64645C11.7402 5.55268 11.8674 5.5 12 5.5H14.5C14.6326 5.5 14.7598 5.55268 14.8536 5.64645C14.9473 5.74021 15 5.86739 15 6C15.0008 6.7954 15.3172 7.55798 15.8796 8.12041C16.442 8.68284 17.2046 8.99917 18 9C18.1326 9 18.2598 9.05268 18.3536 9.14645C18.4473 9.24021 18.5 9.36739 18.5 9.5Z" fill="#F5F5F5"/>
</svg>
