<svg width="24" height="25" viewBox="0 0 24 25" fill="none" xmlns="http://www.w3.org/2000/svg">
<g clip-path="url(#clip0_450_4838)">
<path d="M19.3846 -3.5H4.61539C2.33119 -3.49756 0.141255 -2.58908 -1.47391 -0.973913C-3.08908 0.641255 -3.99756 2.83119 -4 5.11539V19.8846C-3.99756 22.1688 -3.08908 24.3587 -1.47391 25.9739C0.141255 27.5891 2.33119 28.4976 4.61539 28.5H19.3846C21.6688 28.4976 23.8587 27.5891 25.4739 25.9739C27.0891 24.3587 27.9976 22.1688 28 19.8846V5.11539C27.9976 2.83119 27.0891 0.641255 25.4739 -0.973913C23.8587 -2.58908 21.6688 -3.49756 19.3846 -3.5ZM12 19.8846C10.5395 19.8846 9.11172 19.4515 7.89733 18.6401C6.68293 17.8287 5.73643 16.6753 5.17751 15.326C4.61858 13.9766 4.47234 12.4918 4.75728 11.0593C5.04222 9.62686 5.74553 8.31105 6.77829 7.27829C7.81105 6.24553 9.12686 5.54222 10.5593 5.25728C11.9918 4.97234 13.4766 5.11858 14.826 5.67751C16.1753 6.23643 17.3287 7.18293 18.1401 8.39733C18.9515 9.61172 19.3846 11.0395 19.3846 12.5C19.3826 14.4579 18.6039 16.335 17.2195 17.7195C15.835 19.1039 13.9579 19.8826 12 19.8846ZM21.2308 5.11539C20.8656 5.11539 20.5087 5.00711 20.2051 4.80425C19.9015 4.60139 19.6649 4.31306 19.5251 3.97572C19.3854 3.63838 19.3489 3.26718 19.4201 2.90906C19.4913 2.55094 19.6672 2.22199 19.9253 1.9638C20.1835 1.70561 20.5125 1.52978 20.8706 1.45855C21.2287 1.38732 21.5999 1.42388 21.9373 1.56361C22.2746 1.70334 22.5629 1.93996 22.7658 2.24356C22.9686 2.54716 23.0769 2.9041 23.0769 3.26923C23.0769 3.75886 22.8824 4.22844 22.5362 4.57466C22.19 4.92088 21.7204 5.11539 21.2308 5.11539ZM16.9231 12.5C16.9231 13.4737 16.6343 14.4255 16.0934 15.2351C15.5524 16.0447 14.7836 16.6757 13.884 17.0483C12.9844 17.4209 11.9945 17.5184 11.0396 17.3285C10.0846 17.1385 9.20736 16.6696 8.51886 15.9811C7.83035 15.2926 7.36148 14.4154 7.17152 13.4604C6.98156 12.5055 7.07905 11.5156 7.45167 10.616C7.82429 9.71644 8.45529 8.94757 9.26489 8.40661C10.0745 7.86566 11.0263 7.57692 12 7.57692C13.3057 7.57692 14.5579 8.0956 15.4811 9.01886C16.4044 9.94211 16.9231 11.1943 16.9231 12.5Z" fill="#42454D"/>
</g>
<defs>
<clipPath id="clip0_450_4838">
<rect y="0.5" width="24" height="24" rx="4" fill="white"/>
</clipPath>
</defs>
</svg>
