<svg width="30" height="39" viewBox="0 0 30 39" fill="none" xmlns="http://www.w3.org/2000/svg">
<path d="M6.26696 10.4395C6.26696 10.4395 4.84055 17.6034 5.50196 19.5797C5.50196 19.5797 6.37852 8.74219 14.8015 0.375C14.8015 0.375 14.5306 7.37953 18.9054 10.9336C23.2802 14.4877 24.2684 20.018 24.2684 20.018C24.2684 20.018 24.7624 16.2408 23.2802 10.1925C23.2802 10.1925 32.5798 19.8506 28.3165 30.6323C28.3165 30.6323 23.1766 42.5058 8.45836 37.3102C-6.25992 32.1145 3.63727 12.3042 6.26696 10.4395Z" fill="#F6AF62"/>
<path d="M21.9724 19.5957C22.1079 22.6318 20.7373 23.4286 19.6296 23.588C18.9204 23.6916 18.2032 23.5083 17.5817 23.1657C11.4856 19.8586 14.6173 11.7783 14.6173 11.7783C10.6249 15.5954 12.7048 23.5243 12.7048 23.5243C12.7048 23.5243 13.9399 28.0186 11.4139 28.4091C10.1468 28.6083 9.55713 28.0983 9.2862 27.5485C9.03916 27.0385 9.03916 26.4408 9.25432 25.9149C10.9676 21.6596 9.50135 19.253 9.50135 19.253C8.68057 21.6914 7.81198 23.3011 7.18245 24.2654C6.28995 25.636 5.72416 27.1979 5.64448 28.8314C5.3576 34.9196 10.4576 37.35 10.4576 37.35C18.8328 41.6213 22.594 33.8119 22.594 33.8119C26.921 25.4925 21.9724 19.5957 21.9724 19.5957Z" fill="#FBD872"/>
</svg>
