<svg width="52" height="52" viewBox="0 0 52 52" fill="none" xmlns="http://www.w3.org/2000/svg">
<circle cx="26" cy="26" r="26" fill="url(#paint0_linear_4_2286)"/>
<path d="M34.3716 21.7789C38.2838 22.9734 41.0596 26.0055 41.0596 29.5501C41.0596 31.6973 40.0393 33.6558 38.3661 35.1307C38.811 36.0205 39.4973 36.7865 40.3705 37.3297C40.6722 37.5173 40.6851 37.9616 40.3722 38.1298C39.1057 38.8105 37.5838 39.0045 36.1029 38.5448C35.3243 38.3078 34.6473 37.9113 34.0767 37.4132C33.0031 37.713 31.8522 37.8726 30.6529 37.8726C25.9041 37.8726 21.8952 35.3241 20.6523 31.8472" fill="#FFF48B"/>
<path d="M34.3716 21.7789C38.2838 22.9734 41.0596 26.0055 41.0596 29.5501C41.0596 31.6973 40.0393 33.6558 38.3661 35.1307C38.811 36.0205 39.4973 36.7865 40.3705 37.3297C40.6722 37.5173 40.6851 37.9616 40.3722 38.1298C39.1057 38.8105 37.5838 39.0045 36.1029 38.5448C35.3243 38.3078 34.6473 37.9113 34.0767 37.4132C33.0031 37.713 31.8522 37.8726 30.6529 37.8726C25.9041 37.8726 21.8952 35.3241 20.6523 31.8472" fill="#E86900"/>
<path d="M34.3725 21.7776L33.4102 22.484V24.7477L34.3725 24.0411C37.8596 25.1093 40.4478 27.6317 40.9654 30.6858C41.0267 30.314 41.0596 29.9376 41.0596 29.5517C41.0596 26.0035 38.2831 22.9729 34.3725 21.7776Z" fill="#FFF5CD"/>
<path d="M40.3725 37.3296C40.6741 37.517 40.6866 37.9611 40.3739 38.1293C39.1074 38.8106 37.5866 39.0043 36.1056 38.545C35.3292 38.3097 34.6515 37.9097 34.0774 37.4156C33.0045 37.7121 31.8563 37.8721 30.6562 37.8721C25.908 37.8721 21.8986 35.3262 20.6562 31.8485L21.4986 31.2321C23.2539 33.8391 26.6986 35.6085 30.6562 35.6085C31.8563 35.6085 33.0045 35.4485 34.0774 35.1521C34.6515 35.6462 35.3292 36.0462 36.1056 36.2815C37.1457 36.6062 38.2092 36.6062 39.188 36.338C39.5295 36.7174 39.9262 37.0522 40.3725 37.3296Z" fill="#E86900"/>
<path d="M35.2915 30.7445C35.9509 30.7445 36.4854 30.2099 36.4854 29.5506C36.4854 28.8912 35.9509 28.3567 35.2915 28.3567C34.6322 28.3567 34.0977 28.8912 34.0977 29.5506C34.0977 30.2099 34.6322 30.7445 35.2915 30.7445Z" fill="white"/>
<path d="M34.4194 22.5962C34.4194 27.7802 29.1629 31.9874 22.6828 31.9874C21.3288 31.9874 20.0279 31.8036 18.819 31.4651C18.1758 32.0309 17.4069 32.4758 16.5316 32.7466C14.8209 33.2753 13.0636 33.0336 11.6174 32.2221C11.3106 32.05 11.3251 31.6098 11.6266 31.4287C12.6527 30.8127 13.4601 29.9249 13.9783 28.8924C12.0923 27.2289 10.9414 25.019 10.9414 22.5962C10.9414 17.4122 16.198 13.205 22.6828 13.205C29.1629 13.205 34.4194 17.4121 34.4194 22.5962Z" fill="#43936C"/>
<path d="M34.4173 22.5964C34.4173 27.7823 29.1608 31.9893 22.6808 31.9893C21.3302 31.9893 20.0266 31.8058 18.8172 31.4669C18.1773 32.0316 17.4055 32.474 16.5302 32.747C14.8217 33.2733 13.0644 33.0333 11.618 32.2219C11.3099 32.049 11.3267 31.6075 11.6296 31.4257C12.1102 31.1372 12.5432 30.7877 12.9208 30.394C14.0643 30.7328 15.3113 30.747 16.5302 30.3658C17.4055 30.0975 18.1773 29.6505 18.8172 29.0858C20.0266 29.4246 21.3302 29.6081 22.6808 29.6081C28.6573 29.6081 33.5937 26.0269 34.3184 21.4058C34.3843 21.7964 34.4173 22.1917 34.4173 22.5964Z" fill="#085235"/>
<path d="M34.4191 22.5979C34.4191 22.9979 34.3861 23.3979 34.3203 23.7838C33.5955 19.1579 28.6591 15.5814 22.6826 15.5814C16.6967 15.5814 11.7602 19.1626 11.0403 23.7932C10.9743 23.4026 10.9414 23.0026 10.9414 22.5979C10.9414 17.412 16.1979 13.205 22.6826 13.205C29.1626 13.205 34.4191 17.412 34.4191 22.5979Z" fill="#FFF5CD"/>
<path d="M28.1802 23.921C28.9118 23.921 29.5049 23.3279 29.5049 22.5963C29.5049 21.8647 28.9118 21.2716 28.1802 21.2716C27.4486 21.2716 26.8555 21.8647 26.8555 22.5963C26.8555 23.3279 27.4486 23.921 28.1802 23.921Z" fill="white"/>
<path d="M22.6841 23.921C23.4157 23.921 24.0088 23.3279 24.0088 22.5963C24.0088 21.8647 23.4157 21.2716 22.6841 21.2716C21.9525 21.2716 21.3594 21.8647 21.3594 22.5963C21.3594 23.3279 21.9525 23.921 22.6841 23.921Z" fill="white"/>
<path d="M17.1841 23.921C17.9157 23.921 18.5088 23.3279 18.5088 22.5963C18.5088 21.8647 17.9157 21.2716 17.1841 21.2716C16.4525 21.2716 15.8594 21.8647 15.8594 22.5963C15.8594 23.3279 16.4525 23.921 17.1841 23.921Z" fill="white"/>
<path d="M24.9703 33.5987C24.8862 33.5459 24.8035 33.4926 24.7217 33.4374C24.5071 33.2922 24.2143 33.3487 24.0687 33.5647C23.9234 33.7803 23.9804 34.0725 24.1959 34.2178C24.286 34.2784 24.377 34.3382 24.4703 34.3965C24.548 34.4452 24.6344 34.4682 24.7198 34.4682C24.8766 34.4682 25.0296 34.3901 25.1192 34.2476C25.2571 34.0275 25.1904 33.7371 24.9703 33.5987Z" fill="white"/>
<path d="M30.5612 35.2913C29.1021 35.2242 27.7124 34.9112 26.4293 34.362C26.1922 34.2586 25.9137 34.3698 25.8117 34.6093C25.7092 34.8482 25.8199 35.1249 26.0589 35.2269C27.4458 35.8211 28.9458 36.1589 30.518 36.2315C30.5253 36.232 30.5327 36.232 30.5401 36.232C30.7901 36.232 30.9982 36.0353 31.0097 35.783C31.0217 35.5233 30.8208 35.3032 30.5612 35.2913Z" fill="white"/>
<defs>
<linearGradient id="paint0_linear_4_2286" x1="26" y1="6.5" x2="26" y2="82" gradientUnits="userSpaceOnUse">
<stop stop-color="#E0E0E0"/>
<stop offset="1" stop-color="#535461"/>
</linearGradient>
</defs>
</svg>
