<svg width="53" height="52" viewBox="0 0 53 52" fill="none" xmlns="http://www.w3.org/2000/svg">
<circle cx="26.5" cy="26" r="26" fill="url(#paint0_linear_480_4281)"/>
<g clip-path="url(#clip0_480_4281)">
<path d="M22.0603 12.2425C21.6755 12.0791 21.2613 11.9966 20.8433 12.0001C20.4254 12.0036 20.0126 12.093 19.6306 12.2628L18.9839 12.5502C18.5975 12.7219 18.2511 12.9721 17.9666 13.2849C17.6822 13.5978 17.4659 13.9663 17.3315 14.3672L12.8477 27.7435L31.9099 35.2051L37.1131 18.6333L22.0603 12.2425Z" fill="#085235"/>
<path d="M22.8005 14.2197C22.4169 14.0451 22.0013 13.9521 21.5799 13.9463C21.1585 13.9405 20.7405 14.0221 20.3522 14.1861C19.9343 14.3625 19.561 14.6299 19.2596 14.9689C18.9582 15.3078 18.7362 15.7098 18.6099 16.1455L15.2461 27.7436L30.8201 34.7781L36.4283 20.4194L22.8005 14.2197Z" fill="#43936C"/>
<path d="M18.0418 30.8516C15.8722 27.7685 13.5312 24.4001 13.5312 24.4001C22.7235 16.5779 33.172 15.1505 33.172 15.1505L36.8261 22.2874L34.2638 30.8516L23.2587 33.4066L18.0418 30.8516Z" fill="#FFF5CD"/>
<path d="M38.6382 33.7968L19.336 43.6941C18.9836 43.8744 18.5968 43.9776 18.2014 43.9967C17.806 44.0159 17.411 43.9506 17.0429 43.8051L16.8015 43.7093C16.3534 43.5319 15.9591 43.2411 15.6573 42.8655C15.3554 42.4898 15.1563 42.0422 15.0794 41.5665L12.8477 27.7436H15.2456L26.8292 29.8243C27.2428 29.8981 27.6691 29.8457 28.0526 29.674L30.8761 28.405C31.2682 28.2291 31.5963 27.9361 31.8154 27.5664L37.1134 18.6332L40.0707 30.6567C40.2201 31.265 40.16 31.9058 39.9001 32.4757C39.6401 33.0455 39.1955 33.511 38.6382 33.7968Z" fill="#E86900"/>
<path d="M18.1656 43.9982C17.7821 44.0121 17.3998 43.9463 17.0429 43.8051L16.8015 43.7092C16.3534 43.5318 15.9591 43.2411 15.6573 42.8654C15.3554 42.4898 15.1563 42.0422 15.0794 41.5665L12.8477 27.7436H15.2456L18.1656 43.9982Z" fill="#085235"/>
<path d="M32.0528 23.3767L30.4921 25.5133C30.4921 25.5133 30.441 27.916 27.4438 28.8147C24.4465 29.7133 21.4279 26.4147 22.1679 22.5712C22.3306 21.7263 22.8368 20.9153 23.541 20.247C25.9603 17.9511 30.7183 17.3339 31.9397 22.7967C31.9817 22.9829 32.0194 23.1762 32.0528 23.3767Z" fill="#E86900"/>
<path d="M31.9403 22.7967C31.5431 23.2581 31.2458 23.6029 31.2458 23.6029L28.941 23.2532C28.941 23.2532 29.2665 19.4753 23.4375 20.9056C23.4375 20.9056 23.4727 20.6415 23.5416 20.247C25.961 17.9511 30.7189 17.3339 31.9403 22.7967Z" fill="#085235"/>
<path d="M32.4261 23.4298C32.1127 22.3401 31.0845 21.6796 30.1295 21.9539C29.5271 22.1271 29.0978 22.6309 28.9414 23.2528L29.1284 24.8343C29.5528 25.6726 30.436 26.1378 31.2642 25.8996C32.2192 25.6252 32.7394 24.5194 32.4261 23.4298Z" fill="#E86900"/>
<path d="M30.8206 22.7932C30.8206 22.7932 29.2458 23.6661 30.7198 25.2942L30.8206 22.7932Z" fill="#085235"/>
<path d="M26.3084 20.1302C26.0583 23.8796 22.9153 22.5519 22.8583 20.7463C22.795 18.7276 23.7996 19.0725 24.1888 20.1256C24.5779 21.1787 25.6863 20.0553 25.6863 20.0553C25.6863 20.0553 26.0232 19.7955 26.3084 20.1302Z" fill="#43936C"/>
</g>
<defs>
<linearGradient id="paint0_linear_480_4281" x1="26.5" y1="6.5" x2="26.5" y2="82" gradientUnits="userSpaceOnUse">
<stop stop-color="#E0E0E0"/>
<stop offset="1" stop-color="#535461"/>
</linearGradient>
<clipPath id="clip0_480_4281">
<rect width="32" height="32" fill="white" transform="translate(10.5 12)"/>
</clipPath>
</defs>
</svg>
