<svg width="24" height="25" viewBox="0 0 24 25" fill="none" xmlns="http://www.w3.org/2000/svg">
<circle cx="12" cy="12.5" r="12" fill="#42454D"/>
<path d="M18.6456 8.845C18.5867 8.61459 18.4739 8.40149 18.3164 8.22327C18.159 8.04505 17.9614 7.90683 17.74 7.82C15.5975 6.9925 12.1875 7 12 7C11.8125 7 8.4025 6.9925 6.26 7.82C6.0386 7.90683 5.84102 8.04505 5.68356 8.22327C5.5261 8.40149 5.41327 8.61459 5.35438 8.845C5.1925 9.46875 5 10.6088 5 12.5C5 14.3913 5.1925 15.5313 5.35438 16.155C5.41318 16.3855 5.52597 16.5988 5.68344 16.7771C5.8409 16.9554 6.03853 17.0937 6.26 17.1806C8.3125 17.9725 11.525 18 11.9587 18H12.0413C12.475 18 15.6894 17.9725 17.74 17.1806C17.9615 17.0937 18.1591 16.9554 18.3166 16.7771C18.474 16.5988 18.5868 16.3855 18.6456 16.155C18.8075 15.53 19 14.3913 19 12.5C19 10.6088 18.8075 9.46875 18.6456 8.845ZM14.1388 12.7081L11.1388 14.7081C11.1011 14.7333 11.0573 14.7477 11.0121 14.7499C10.9669 14.7521 10.9219 14.7419 10.882 14.7206C10.8421 14.6992 10.8087 14.6674 10.7855 14.6286C10.7622 14.5897 10.75 14.5453 10.75 14.5V10.5C10.75 10.4547 10.7622 10.4103 10.7855 10.3715C10.8087 10.3326 10.8421 10.3008 10.882 10.2794C10.9219 10.2581 10.9669 10.2479 11.0121 10.2501C11.0573 10.2523 11.1011 10.2668 11.1388 10.2919L14.1388 12.2919C14.173 12.3147 14.2012 12.3456 14.2206 12.3819C14.2401 12.4183 14.2502 12.4588 14.2502 12.5C14.2502 12.5412 14.2401 12.5817 14.2206 12.6181C14.2012 12.6544 14.173 12.6853 14.1388 12.7081Z" fill="#F5F5F5"/>
</svg>
