<svg width="53" height="52" viewBox="0 0 53 52" fill="none" xmlns="http://www.w3.org/2000/svg">
<circle cx="26.5" cy="26" r="26" fill="url(#paint0_linear_4_2286)"/>
<path d="M29.2666 31.3833C29.2687 32.1063 28.7603 32.9826 28.1311 33.3459L16.4928 40.0652C16.1652 40.2543 15.8695 40.2672 15.661 40.1338L13.629 38.9538C13.4249 38.8372 13.3025 38.5864 13.3025 38.2249L13.25 20.6204C13.25 19.8973 13.7573 19.0168 14.3871 18.6552L26.0262 11.9376C26.3411 11.7511 26.6269 11.7336 26.8368 11.856L28.8749 13.043C29.085 13.1594 29.2157 13.4144 29.2168 13.7791L29.2666 31.3833Z" fill="#F3F1FC"/>
<path d="M28.8894 13.0512C28.6794 12.9288 28.3937 12.9463 28.0788 13.1329L16.4397 19.8505C15.8099 20.212 15.3026 21.0925 15.3026 21.8156L15.3551 39.4201C15.3551 39.7758 15.4834 40.0324 15.6875 40.149L13.629 38.9536C13.4249 38.837 13.3025 38.5862 13.3025 38.2247L13.25 20.6202C13.25 19.8971 13.7573 19.0166 14.3871 18.6551L26.0262 11.9375C26.3411 11.7509 26.6269 11.7334 26.8368 11.8559L28.8894 13.0512Z" fill="#085235"/>
<path d="M28.0746 13.1276C28.7038 12.7643 29.2155 13.0559 29.2175 13.7789L29.2675 31.3832C29.2695 32.1062 28.7611 32.9825 28.1319 33.3457L16.4936 40.0651C15.8645 40.4283 15.3527 40.141 15.3507 39.418L15.3008 21.8138C15.2987 21.0908 15.8071 20.2102 16.4363 19.8469L28.0746 13.1276Z" fill="#43936C"/>
<path d="M16.4648 21.8103C16.4638 21.4618 16.7099 21.0342 17.0117 20.8599L27.4456 14.8359C27.7146 14.6806 28.051 14.8742 28.0519 15.1848L28.0991 31.3755C28.1001 31.7276 27.8515 32.1598 27.5465 32.3359L17.1181 38.3567C16.8491 38.512 16.5127 38.3184 16.5118 38.0078L16.4648 21.8103Z" fill="#FFF5CD"/>
<path d="M24.4735 18.0135L26.5547 23.12L24.1512 24.5077C24.1103 23.694 23.6678 23.2345 23.043 23.2509L24.4735 18.0135Z" fill="#F45170"/>
<path d="M21.5285 21.7896L21.5348 24.0368C20.822 24.7482 20.3063 25.8138 20.2671 26.7497L17.8635 28.1374L17.8516 23.9124L21.5285 21.7896Z" fill="#43936C"/>
<path d="M23.0432 23.251C23.668 23.2345 24.1105 23.6941 24.1514 24.5077C24.1533 24.5462 24.1544 24.5854 24.1545 24.6254C24.158 25.8581 23.287 27.3667 22.2142 27.9861C21.1415 28.6054 20.2691 28.1034 20.2656 26.8707C20.2655 26.8306 20.2664 26.7903 20.2681 26.7497C20.3073 25.8138 20.8229 24.7483 21.5358 24.0369C21.9289 23.6445 22.4867 23.2656 23.0432 23.251Z" fill="#57B3FE"/>
<path d="M26.3751 27.234C26.5591 27.1278 26.7129 27.2154 26.7135 27.4268C26.7142 27.6427 26.5613 27.9074 26.3773 28.0136L18.19 32.7616C18.0022 32.8701 17.8522 32.7802 17.8516 32.5643C17.851 32.3529 18 32.0904 18.1878 31.982L26.3751 27.234Z" fill="#E86900"/>
<path d="M24.176 30.8807C24.36 30.7745 24.5138 30.8622 24.5144 31.0736C24.5151 31.2894 24.3622 31.5541 24.1782 31.6604L18.19 35.133C18.0022 35.2415 17.8522 35.1516 17.8516 34.9358C17.851 34.7244 18 34.4618 18.1878 34.3534L24.176 30.8807Z" fill="#E86900"/>
<path d="M37.8085 31.4862L37.8066 32.1479C37.807 32.0074 37.7145 31.8665 37.53 31.76C37.162 31.5475 36.5679 31.5475 36.2049 31.7585C36.0216 31.865 35.9301 32.0037 35.9297 32.1424L35.9316 31.4806C35.932 31.342 36.0235 31.2032 36.2067 31.0968C36.5698 30.8858 37.1639 30.8858 37.5318 31.0983C37.7164 31.2048 37.8089 31.3457 37.8085 31.4862Z" fill="#FEBC1F"/>
<path d="M37.8085 31.4862L37.8066 32.1479C37.807 32.0074 37.7145 31.8665 37.53 31.76C37.162 31.5475 36.5679 31.5475 36.2049 31.7585C36.0216 31.865 35.9301 32.0037 35.9297 32.1424L35.9316 31.4806C35.932 31.342 36.0235 31.2032 36.2067 31.0968C36.5698 30.8858 37.1639 30.8858 37.5318 31.0983C37.7164 31.2048 37.8089 31.3457 37.8085 31.4862Z" fill="#FEBC1F"/>
<path d="M39.7459 31.8459L36.258 29.8286L23.8534 37.0407L23.8516 37.7024L27.3397 39.7163L39.7441 32.5076L39.7459 31.8459ZM37.543 31.8738C37.1747 32.0878 36.5781 32.0863 36.2127 31.8753C35.8447 31.6629 35.8427 31.3187 36.2109 31.1048C36.5739 30.8938 37.168 30.8938 37.536 31.1063C37.9014 31.3172 37.9059 31.6629 37.543 31.8738Z" fill="#FEBC1F"/>
<path d="M27.3415 39.0544L27.3397 39.7161L23.8516 37.7023L23.8534 37.0405L27.3415 39.0544Z" fill="#F9A83D"/>
<path d="M39.7462 31.8457L39.7443 32.5074L27.3398 39.7161L27.3417 39.0544L39.7462 31.8457Z" fill="#FEBC1F"/>
<path d="M36.2561 29.8284L39.7441 31.8457L27.3396 39.0544L23.8516 37.0406L36.2561 29.8284ZM36.2108 31.8751C36.5762 32.0861 37.1729 32.0876 37.541 31.8736C37.9041 31.6627 37.8995 31.3171 37.5341 31.1061C37.1662 30.8936 36.5721 30.8936 36.209 31.1046C35.8409 31.3186 35.8428 31.6627 36.2108 31.8751Z" fill="#FFD06C"/>
<path d="M34.7754 31.1503L34.5489 31.2819L34.1523 31.0537L34.3794 30.9217L34.7754 31.1503Z" fill="#414F65"/>
<path d="M35.803 31.1146L35.5764 31.2462L34.6953 30.7377L34.922 30.6059L35.803 31.1146Z" fill="#414F65"/>
<path d="M34.6975 31.7561L34.4709 31.8878L33.5898 31.3793L33.8165 31.2476L34.6975 31.7561Z" fill="#414F65"/>
<path d="M33.6753 31.7894L33.4513 31.9196L33.0547 31.6905L33.2789 31.5602L33.6753 31.7894Z" fill="#414F65"/>
<path d="M33.6116 32.3876L33.385 32.5193L32.5039 32.0106L32.7305 31.8789L33.6116 32.3876Z" fill="#414F65"/>
<path d="M32.5799 32.4256L32.3534 32.5573L31.957 32.3285L32.1836 32.1968L32.5799 32.4256Z" fill="#414F65"/>
<path d="M31.4999 33.0582L31.2734 33.1899L30.875 32.9591L31.1034 32.8262L31.4999 33.0582Z" fill="#414F65"/>
<path d="M32.5276 33.0208L32.301 33.1525L31.418 32.6418L31.6468 32.5088L32.5276 33.0208Z" fill="#414F65"/>
<path d="M31.435 33.6567L31.211 33.7869L30.3281 33.2764L30.5539 33.1451L31.435 33.6567Z" fill="#414F65"/>
<path d="M30.406 33.6941L30.1794 33.8258L29.7812 33.5952L30.0095 33.4625L30.406 33.6941Z" fill="#414F65"/>
<path d="M30.3436 34.2911L30.1171 34.4227L29.2344 33.9124L29.4625 33.7799L30.3436 34.2911Z" fill="#414F65"/>
<path d="M29.312 34.3285L29.0855 34.4602L28.6875 34.2298L28.9156 34.0972L29.312 34.3285Z" fill="#414F65"/>
<path d="M29.2471 34.927L29.0231 35.0571L28.1406 34.547L28.366 34.416L29.2471 34.927Z" fill="#414F65"/>
<path d="M28.2181 34.9644L27.9915 35.0961L27.5938 34.8658L27.8216 34.7334L28.2181 34.9644Z" fill="#414F65"/>
<path d="M28.1557 35.5613L27.9292 35.693L27.0469 35.1831L27.2746 35.0507L28.1557 35.5613Z" fill="#414F65"/>
<path d="M27.0657 36.1958L26.8391 36.3274L25.957 35.8177L26.1846 35.6854L27.0657 36.1958Z" fill="#414F65"/>
<path d="M27.1281 35.5988L26.9015 35.7304L26.5039 35.5004L26.7316 35.368L27.1281 35.5988Z" fill="#414F65"/>
<path d="M26.0345 36.2332L25.8106 36.3634L25.4141 36.1344L25.6381 36.0043L26.0345 36.2332Z" fill="#414F65"/>
<path d="M25.9717 36.8316L25.7452 36.9633L24.8633 36.4538L25.0908 36.3215L25.9717 36.8316Z" fill="#414F65"/>
<defs>
<linearGradient id="paint0_linear_4_2286" x1="26.5" y1="16.5" x2="26.5" y2="86" gradientUnits="userSpaceOnUse">
<stop stop-color="#E0E0E0"/>
<stop offset="1" stop-color="#535461"/>
</linearGradient>
</defs>
</svg>
