<svg width="24" height="25" viewBox="0 0 24 25" fill="none" xmlns="http://www.w3.org/2000/svg">
<path d="M12 0.5C9.62663 0.5 7.30655 1.20379 5.33316 2.52236C3.35977 3.84094 1.8217 5.71508 0.913451 7.9078C0.00519941 10.1005 -0.232441 12.5133 0.230582 14.8411C0.693605 17.1689 1.83649 19.307 3.51472 20.9853C5.19295 22.6635 7.33115 23.8064 9.65892 24.2694C11.9867 24.7324 14.3995 24.4948 16.5922 23.5865C18.7849 22.6783 20.6591 21.1402 21.9776 19.1668C23.2962 17.1934 24 14.8734 24 12.5C23.9966 9.31843 22.7313 6.26814 20.4816 4.01843C18.2319 1.76872 15.1816 0.50336 12 0.5ZM15.585 17.3162C15.4705 17.5325 15.2748 17.6945 15.0409 17.7665C14.807 17.8386 14.5541 17.8148 14.3377 17.7004C13.6191 17.3141 12.8159 17.1119 12 17.1119C11.1841 17.1119 10.3809 17.3141 9.66231 17.7004C9.44654 17.8089 9.19686 17.8285 8.96681 17.755C8.73676 17.6815 8.54467 17.5208 8.43174 17.3073C8.31882 17.0938 8.29405 16.8446 8.36275 16.6131C8.43145 16.3815 8.58815 16.1862 8.79923 16.0688C9.78549 15.5472 10.8843 15.2745 12 15.2745C13.1157 15.2745 14.2145 15.5472 15.2008 16.0688C15.4171 16.1833 15.5791 16.379 15.6511 16.6129C15.7232 16.8468 15.6994 17.0998 15.585 17.3162ZM17.4312 14.0854C17.3161 14.3014 17.1199 14.4629 16.8858 14.5343C16.6516 14.6057 16.3988 14.5812 16.1827 14.4662C14.8956 13.7804 13.4596 13.4217 12.0012 13.4217C10.5428 13.4217 9.10673 13.7804 7.81962 14.4662C7.60404 14.5763 7.35383 14.5973 7.1229 14.5247C6.89196 14.4521 6.69879 14.2917 6.585 14.078C6.47121 13.8643 6.4459 13.6145 6.51454 13.3824C6.58317 13.1502 6.74025 12.9544 6.95193 12.8369C8.50593 12.0082 10.24 11.5748 12.0012 11.5748C13.7623 11.5748 15.4964 12.0082 17.0504 12.8369C17.1576 12.894 17.2524 12.9717 17.3295 13.0655C17.4066 13.1593 17.4644 13.2674 17.4997 13.3835C17.535 13.4997 17.547 13.6217 17.535 13.7426C17.523 13.8634 17.4874 13.9807 17.43 14.0877L17.4312 14.0854ZM19.2773 10.8546C19.2202 10.9616 19.1426 11.0563 19.0489 11.1333C18.9552 11.2104 18.8472 11.2681 18.7312 11.3034C18.6151 11.3386 18.4933 11.3507 18.3726 11.3388C18.2518 11.3269 18.1347 11.2914 18.0277 11.2342C16.1741 10.2414 14.1039 9.7219 12.0012 9.7219C9.89841 9.7219 7.82822 10.2414 5.97462 11.2342C5.75857 11.3496 5.50554 11.3744 5.27119 11.3032C5.03684 11.232 4.84037 11.0707 4.725 10.8546C4.60963 10.6386 4.58482 10.3855 4.65601 10.1512C4.7272 9.91684 4.88857 9.72037 5.10462 9.605C7.22607 8.46964 9.595 7.8756 12.0012 7.8756C14.4073 7.8756 16.7762 8.46964 18.8977 9.605C19.0049 9.66218 19.0998 9.73997 19.1769 9.8339C19.254 9.92783 19.3117 10.0361 19.3469 10.1524C19.3821 10.2687 19.3939 10.3908 19.3818 10.5117C19.3696 10.6326 19.3337 10.7499 19.2762 10.8569L19.2773 10.8546Z" fill="#42454D"/>
</svg>
