<svg width="70" height="70" viewBox="0 0 70 70" fill="none" xmlns="http://www.w3.org/2000/svg">
<path d="M60.9603 47.6699C59.6615 47.3737 58.3084 47.5239 57.1501 48.0931L46.2715 53.4388C46.2681 53.0371 46.2054 52.6294 46.0777 52.2236C45.2668 49.6476 42.1447 48.1131 39.1176 48.8033L34.5494 49.8452C32.8456 50.2338 31.2744 50.0578 29.7469 49.3072L23.657 46.3148C21.1602 45.0877 18.6862 45.8782 15.822 46.7931C14.2567 47.2931 12.5107 47.8501 10.4645 48.1934L10.3783 47.9194C10.2372 47.4713 9.89883 47.0965 9.42567 46.8638C8.95203 46.6312 8.4013 46.569 7.87493 46.6892L4.51559 47.4554C3.98889 47.5755 3.54847 47.8634 3.27529 48.2664C3.00194 48.6694 2.92921 49.1381 3.07032 49.586L9.09088 68.7098C9.23199 69.1579 9.57033 69.5329 10.0438 69.7656C10.3594 69.9207 10.7094 70 11.0637 70C11.2407 70 11.4188 69.9802 11.5942 69.9402L14.9537 69.174C15.9986 68.9357 16.6354 68.0456 16.4271 67.1549C21.2539 66.2683 24.3149 67.0099 28.4343 68.0097C29.19 68.193 29.9713 68.3827 30.8067 68.5732C31.5397 68.7404 32.2629 68.824 32.9744 68.824C34.3551 68.824 35.6913 68.5097 36.9663 67.8833L62.1729 55.4967C63.3309 54.9279 64.1603 54.0058 64.5082 52.9004C64.856 51.7951 64.6794 50.6435 64.0108 49.6577C63.3424 48.6721 62.259 47.9662 60.9603 47.6699ZM62.1714 52.3677C61.9906 52.9418 61.5618 53.4197 60.9634 53.7137L35.7566 66.1005C34.381 66.7763 32.9667 66.935 31.4327 66.5848C30.6161 66.3986 29.8439 66.2112 29.0976 66.0301C24.7652 64.9786 21.2831 64.1342 15.8067 65.1622L11.0916 50.1854C13.2735 49.805 15.1316 49.2128 16.672 48.7206C19.4771 47.8246 21.0077 47.3903 22.4473 48.0976L28.5372 51.09C30.6195 52.1134 32.853 52.3634 35.1754 51.8338L39.7435 50.7919C41.4824 50.3954 43.2752 51.2767 43.7411 52.7563C44.2068 54.2358 43.1715 55.762 41.433 56.1585L34.7527 57.6819C33.6398 57.9357 32.5537 57.9446 31.5253 57.7084C30.8809 57.5604 30.2165 57.885 30.0425 58.434C29.8685 58.983 30.2502 59.548 30.8951 59.6961C31.5997 59.8579 32.3192 59.9387 33.0488 59.9387C33.8161 59.9387 34.5947 59.8493 35.3788 59.6704L42.0591 58.147C43.3358 57.8559 44.3934 57.214 45.1301 56.3766L58.3592 49.8758C58.958 49.5816 59.6592 49.5042 60.3338 49.6584C61.0084 49.8123 61.5701 50.1775 61.9157 50.6869C62.2614 51.1966 62.3522 51.7934 62.1714 52.3677ZM69.5542 25.5431L58.8245 9.72581C58.6684 9.49577 58.4141 9.32598 58.1144 9.25187L50.9716 7.48665C50.9986 7.25894 51.0137 7.02973 51.0137 6.80065C51.0136 3.05088 47.4289 0 43.023 0C38.617 0 35.0324 3.05088 35.0324 6.80079C35.0324 8.10937 35.4699 9.33216 36.2254 10.3705L26.3582 19.2448C26.1456 19.436 26.0271 19.6892 26.0271 19.9523V41.1984C26.0271 43.039 27.7863 44.5363 29.9489 44.5363H56.0967C58.2593 44.5363 60.0187 43.039 60.0187 41.1984V33.503L68.3344 29.4168C69.1031 29.0391 69.6535 28.4275 69.8843 27.6943C70.1153 26.9613 69.998 26.1972 69.5542 25.5431ZM43.023 2.05881C46.0951 2.05881 48.5946 4.1861 48.5946 6.80079C48.5946 6.83346 48.593 6.86612 48.5921 6.89865L44.9309 5.99387C44.3978 5.60339 43.7445 5.39792 43.023 5.39792C42.1933 5.39792 41.4532 5.66899 40.8826 6.18191L37.9723 8.79934C37.6389 8.19158 37.4515 7.51451 37.4515 6.80065C37.4514 4.1861 39.9508 2.05881 43.023 2.05881ZM57.5998 41.1985C57.5998 41.9037 56.9256 42.4776 56.0968 42.4776H29.9491C29.1203 42.4776 28.4462 41.9037 28.4462 41.1985V20.3622L37.8054 11.9448C39.2064 12.9757 41.03 13.6014 43.023 13.6014C43.6911 13.6014 44.2325 13.1405 44.2325 12.572C44.2325 12.0035 43.6911 11.5426 43.023 11.5426C41.6728 11.5426 40.4337 11.1316 39.4683 10.4491L42.6393 7.59727C42.7517 7.49612 42.8593 7.45673 43.023 7.45673C43.1865 7.45673 43.2941 7.49612 43.4063 7.59714L57.5998 20.3622V41.1985ZM44.2325 21.0455C46.3968 21.5066 48.0045 23.176 48.0045 25.159C48.0045 25.7275 47.4631 26.1884 46.795 26.1884C46.1269 26.1884 45.5855 25.7275 45.5855 25.159C45.5855 23.9564 44.4358 22.9779 43.0228 22.9779C41.6785 22.9779 40.1089 23.5492 40.1089 25.159C40.1089 26.7689 41.6785 27.3401 43.0228 27.3401C46.1132 27.3401 48.356 29.1232 48.356 31.5799C48.356 33.7027 46.6813 35.3227 44.2325 35.7237V36.9649C44.2325 37.5334 43.6911 37.9943 43.023 37.9943C42.3548 37.9943 41.8135 37.5334 41.8135 36.9649V35.6934C39.6491 35.2322 38.0413 33.5628 38.0413 31.5798C38.0413 31.0113 38.5827 30.5504 39.2508 30.5504C39.9189 30.5504 40.4603 31.0113 40.4603 31.5798C40.4603 32.7824 41.6098 33.7609 43.0228 33.7609C44.3671 33.7609 45.937 33.1896 45.937 31.5798C45.937 29.9699 44.3671 29.3988 43.0228 29.3988C39.9326 29.3988 37.6899 27.6156 37.6899 25.1589C37.6899 23.036 39.3645 21.416 41.8135 21.0151V19.7737C41.8135 19.2052 42.3548 18.7443 43.023 18.7443C43.6911 18.7443 44.2325 19.2052 44.2325 19.7737V21.0455Z" fill="#E86900"/>
</svg>
