<svg width="60" height="60" viewBox="0 0 60 60" fill="none" xmlns="http://www.w3.org/2000/svg">
<path fill-rule="evenodd" clip-rule="evenodd" d="M50.4154 33.0187V41.6666C50.4154 42.0534 50.2617 42.4244 49.9882 42.6978C49.7147 42.9713 49.3438 43.125 48.957 43.125C48.5703 43.125 48.1993 42.9713 47.9258 42.6978C47.6523 42.4244 47.4987 42.0534 47.4987 41.6666V33.0187C45.2899 33.3342 43.243 34.3576 41.6654 35.9354C39.7848 37.8547 38.7368 40.438 38.7487 43.125V44.5833C38.7487 45.5299 39.0557 46.451 39.6237 47.2083C40.1917 47.9656 40.9899 48.5183 41.8987 48.7833C42.3323 50.9136 42.6536 53.0651 42.8612 55.2291C42.97 56.3121 43.4786 57.3155 44.2876 58.0436C45.0965 58.7717 46.1478 59.1721 47.2362 59.1666H50.707C51.7954 59.1721 52.8467 58.7717 53.6557 58.0436C54.4646 57.3155 54.9732 56.3121 55.082 55.2291C55.2896 53.0651 55.6109 50.9136 56.0445 48.7833C56.9478 48.513 57.7397 47.9581 58.302 47.2013C58.8644 46.4445 59.1672 45.5262 59.1654 44.5833V43.125C59.166 40.6698 58.2817 38.2966 56.6747 36.4404C55.0676 34.5843 52.8454 33.3695 50.4154 33.0187ZM12.4987 32.9166V41.6666C12.4987 42.0534 12.3451 42.4244 12.0716 42.6978C11.7981 42.9713 11.4271 43.125 11.0404 43.125C10.6536 43.125 10.2827 42.9713 10.0092 42.6978C9.73568 42.4244 9.58203 42.0534 9.58203 41.6666V32.9166C7.15201 33.2674 4.9298 34.4822 3.32273 36.3383C1.71566 38.1945 0.831401 40.5677 0.832032 43.0229V44.4812C0.832032 45.4279 1.13906 46.3489 1.70703 47.1062C2.275 47.8635 3.07328 48.4162 3.98203 48.6812C4.41563 50.8115 4.73691 52.9631 4.94453 55.1271C5.05335 56.21 5.56191 57.2135 6.37089 57.9415C7.17986 58.6696 8.23118 59.07 9.31953 59.0646H12.7904C13.8787 59.07 14.93 58.6696 15.739 57.9415C16.548 57.2135 17.0565 56.21 17.1654 55.1271C17.373 52.9631 17.6943 50.8115 18.1279 48.6812C19.0312 48.4109 19.823 47.856 20.3854 47.0992C20.9477 46.3424 21.2506 45.4241 21.2487 44.4812V43.0229C21.2493 40.5677 20.3651 38.1945 18.758 36.3383C17.1509 34.4822 14.9287 33.2674 12.4987 32.9166ZM22.707 30C22.3203 30 21.9493 30.1536 21.6758 30.4271C21.4023 30.7006 21.2487 31.0715 21.2487 31.4583V32.9166C21.2487 34.077 21.7096 35.1898 22.5301 36.0102C23.3506 36.8307 24.4634 37.2916 25.6237 37.2916H37.2904C37.6771 37.2916 38.0481 37.138 38.3216 36.8645C38.5951 36.591 38.7487 36.2201 38.7487 35.8333C38.7487 35.4465 38.5951 35.0756 38.3216 34.8021C38.0481 34.5286 37.6771 34.375 37.2904 34.375H25.6237C25.2369 34.375 24.866 34.2213 24.5925 33.9478C24.319 33.6744 24.1654 33.3034 24.1654 32.9166V31.4583C24.1654 31.0715 24.0117 30.7006 23.7382 30.4271C23.4647 30.1536 23.0938 30 22.707 30ZM35.832 31.4583C35.832 31.8451 35.9857 32.216 36.2592 32.4895C36.5327 32.763 36.9036 32.9166 37.2904 32.9166C37.6771 32.9166 38.0481 32.763 38.3216 32.4895C38.5951 32.216 38.7487 31.8451 38.7487 31.4583V30C38.7487 28.8397 38.2878 27.7269 37.4673 26.9064C36.6468 26.0859 35.534 25.625 34.3737 25.625H22.707C22.3203 25.625 21.9493 25.7786 21.6758 26.0521C21.4023 26.3256 21.2487 26.6965 21.2487 27.0833C21.2487 27.4701 21.4023 27.841 21.6758 28.1145C21.9493 28.388 22.3203 28.5416 22.707 28.5416H34.3737C34.7605 28.5416 35.1314 28.6953 35.4049 28.9688C35.6784 29.2423 35.832 29.6132 35.832 30V31.4583ZM11.0404 19.7916C9.88664 19.7916 8.75883 20.1338 7.79954 20.7747C6.84025 21.4157 6.09258 22.3268 5.65107 23.3927C5.20956 24.4586 5.09404 25.6315 5.31912 26.763C5.5442 27.8946 6.09977 28.934 6.91557 29.7498C7.73138 30.5656 8.77078 31.1211 9.90234 31.3462C11.0339 31.5713 12.2068 31.4558 13.2727 31.0143C14.3386 30.5728 15.2496 29.8251 15.8906 28.8658C16.5316 27.9065 16.8737 26.7787 16.8737 25.625C16.8737 24.0779 16.2591 22.5942 15.1652 21.5002C14.0712 20.4062 12.5875 19.7916 11.0404 19.7916ZM48.957 19.7916C47.8033 19.7916 46.6755 20.1338 45.7162 20.7747C44.7569 21.4157 44.0092 22.3268 43.5677 23.3927C43.1262 24.4586 43.0107 25.6315 43.2358 26.763C43.4609 27.8946 44.0164 28.934 44.8322 29.7498C45.648 30.5656 46.6874 31.1211 47.819 31.3462C48.9506 31.5713 50.1234 31.4558 51.1894 31.0143C52.2553 30.5728 53.1663 29.8251 53.8073 28.8658C54.4482 27.9065 54.7904 26.7787 54.7904 25.625C54.7904 24.0779 54.1758 22.5942 53.0818 21.5002C51.9879 20.4062 50.5041 19.7916 48.957 19.7916ZM28.3945 18.1291C27.97 18.2636 27.5274 18.3325 27.082 18.3333C27.082 19.4936 26.6211 20.6064 25.8006 21.4269C24.9802 22.2474 23.8674 22.7083 22.707 22.7083C21.5467 22.7083 20.4339 22.2474 19.6134 21.4269C18.793 20.6064 18.332 19.4936 18.332 18.3333C17.1717 18.3333 16.0589 17.8724 15.2384 17.0519C14.418 16.2314 13.957 15.1186 13.957 13.9583V5.20831C13.957 4.04799 14.418 2.93519 15.2384 2.11472C16.0589 1.29425 17.1717 0.833313 18.332 0.833313H27.082C27.5274 0.834171 27.97 0.903019 28.3945 1.03748C28.0317 1.56162 27.7376 2.13015 27.5195 2.72915C26.5152 3.09637 25.6006 3.67302 24.8362 4.42081C24.1571 5.09815 23.6184 5.90279 23.2508 6.78866C22.8832 7.67452 22.694 8.62421 22.694 9.58331C22.694 10.5424 22.8832 11.4921 23.2508 12.378C23.6184 13.2638 24.1571 14.0685 24.8362 14.7458C25.6006 15.4936 26.5152 16.0703 27.5195 16.4375C27.7376 17.0365 28.0317 17.605 28.3945 18.1291ZM29.9987 5.20831C28.8384 5.20831 27.7256 5.66925 26.9051 6.48972C26.0846 7.31019 25.6237 8.42299 25.6237 9.58331C25.6237 10.7436 26.0846 11.8564 26.9051 12.6769C27.7256 13.4974 28.8384 13.9583 29.9987 13.9583C29.9987 15.1186 30.4596 16.2314 31.2801 17.0519C32.1006 17.8724 33.2134 18.3333 34.3737 18.3333H41.6654C42.8257 18.3333 43.9385 17.8724 44.759 17.0519C45.5794 16.2314 46.0404 15.1186 46.0404 13.9583V5.20831C46.0404 4.04799 45.5794 2.93519 44.759 2.11472C43.9385 1.29425 42.8257 0.833313 41.6654 0.833313H34.3737C33.2134 0.833313 32.1006 1.29425 31.2801 2.11472C30.4596 2.93519 29.9987 4.04799 29.9987 5.20831ZM48.3008 15.2562L51.2174 16.7146C51.5574 16.8561 51.9383 16.8638 52.2836 16.7362C52.629 16.6085 52.9133 16.3549 53.0795 16.0263C53.2456 15.6977 53.2813 15.3184 53.1794 14.9646C53.0775 14.6108 52.8455 14.3086 52.5299 14.1187L49.6133 12.6604C49.4414 12.557 49.2501 12.4902 49.0513 12.464C48.8525 12.4379 48.6504 12.4531 48.4577 12.5086C48.265 12.5641 48.0858 12.6588 47.9313 12.7867C47.7769 12.9146 47.6504 13.073 47.56 13.2519C47.4695 13.4309 47.4169 13.6266 47.4054 13.8268C47.394 14.027 47.424 14.2274 47.4935 14.4156C47.563 14.6037 47.6706 14.7754 47.8095 14.92C47.9484 15.0647 48.1156 15.1791 48.3008 15.2562ZM10.3841 12.6604L7.46745 14.1187C7.28232 14.1958 7.11508 14.3103 6.97618 14.4549C6.83728 14.5996 6.7297 14.7713 6.66018 14.9594C6.59065 15.1475 6.56067 15.3479 6.5721 15.5481C6.58354 15.7484 6.63614 15.9441 6.72663 16.123C6.81711 16.302 6.94354 16.4604 7.09801 16.5883C7.25247 16.7162 7.43165 16.8108 7.62435 16.8663C7.81706 16.9219 8.01914 16.937 8.21797 16.9109C8.41681 16.8848 8.60812 16.818 8.77995 16.7146L11.6966 15.2562C12.0121 15.0664 12.2441 14.7642 12.3461 14.4104C12.448 14.0565 12.4123 13.6772 12.2462 13.3486C12.08 13.02 11.7957 12.7664 11.4503 12.6388C11.1049 12.5111 10.724 12.5188 10.3841 12.6604ZM50.4154 11.0416H53.332C53.7188 11.0416 54.0897 10.888 54.3632 10.6145C54.6367 10.341 54.7904 9.97009 54.7904 9.58331C54.7904 9.19654 54.6367 8.82561 54.3632 8.55212C54.0897 8.27863 53.7188 8.12498 53.332 8.12498H50.4154C50.0286 8.12498 49.6577 8.27863 49.3842 8.55212C49.1107 8.82561 48.957 9.19654 48.957 9.58331C48.957 9.97009 49.1107 10.341 49.3842 10.6145C49.6577 10.888 50.0286 11.0416 50.4154 11.0416ZM9.58203 8.12498H6.66536C6.27859 8.12498 5.90766 8.27863 5.63417 8.55212C5.36068 8.82561 5.20703 9.19654 5.20703 9.58331C5.20703 9.97009 5.36068 10.341 5.63417 10.6145C5.90766 10.888 6.27859 11.0416 6.66536 11.0416H9.58203C9.9688 11.0416 10.3397 10.888 10.6132 10.6145C10.8867 10.341 11.0404 9.97009 11.0404 9.58331C11.0404 9.19654 10.8867 8.82561 10.6132 8.55212C10.3397 8.27863 9.9688 8.12498 9.58203 8.12498ZM11.6966 3.9104L8.77995 2.45206C8.44002 2.31051 8.05913 2.30279 7.71374 2.43045C7.36836 2.55811 7.08405 2.8117 6.9179 3.14031C6.75175 3.46891 6.71606 3.84821 6.81799 4.20204C6.91993 4.55587 7.15194 4.85805 7.46745 5.0479L10.3841 6.50623C10.5559 6.60962 10.7473 6.67647 10.9461 6.70258C11.1449 6.7287 11.347 6.71352 11.5397 6.65801C11.7324 6.60249 11.9116 6.50783 12.0661 6.37994C12.2205 6.25204 12.3469 6.09366 12.4374 5.9147C12.5279 5.73573 12.5805 5.54003 12.592 5.33981C12.6034 5.1396 12.5734 4.93918 12.5039 4.75108C12.4344 4.56297 12.3268 4.39123 12.1879 4.24658C12.049 4.10193 11.8817 3.98749 11.6966 3.9104ZM49.6133 6.50623L52.5299 5.0479C52.8455 4.85805 53.0775 4.55587 53.1794 4.20204C53.2813 3.84821 53.2456 3.46891 53.0795 3.14031C52.9133 2.8117 52.629 2.55811 52.2836 2.43045C51.9383 2.30279 51.5574 2.31051 51.2174 2.45206L48.3008 3.9104C48.1156 3.98749 47.9484 4.10193 47.8095 4.24658C47.6706 4.39123 47.563 4.56297 47.4935 4.75108C47.424 4.93918 47.394 5.1396 47.4054 5.33981C47.4169 5.54003 47.4695 5.73573 47.56 5.9147C47.6504 6.09366 47.7769 6.25204 47.9313 6.37994C48.0858 6.50783 48.265 6.60249 48.4577 6.65801C48.6504 6.71352 48.8525 6.7287 49.0513 6.70258C49.2501 6.67647 49.4414 6.60962 49.6133 6.50623Z" fill="#E86900"/>
</svg>
