<svg width="17" height="16" viewBox="0 0 17 16" fill="none" xmlns="http://www.w3.org/2000/svg">
<g clip-path="url(#clip0_480_4175)">
<path d="M15.4842 13H14.5011V6.00001C14.5011 5.7348 14.3957 5.48044 14.2082 5.2929C14.0207 5.10537 13.7663 5.00001 13.5011 5.00001H10.7511C10.6848 5.00001 10.6212 5.02635 10.5743 5.07323C10.5274 5.12012 10.5011 5.18371 10.5011 5.25001V13H9.5011V2.02564C9.50275 1.86987 9.46895 1.71578 9.40225 1.57501C9.33555 1.43424 9.23769 1.3105 9.1161 1.21314C8.95035 1.08391 8.7481 1.01019 8.53807 1.00245C8.32804 0.994707 8.12091 1.05334 7.9461 1.17001L2.9461 4.50001C2.80894 4.59152 2.69653 4.71553 2.61889 4.861C2.54125 5.00647 2.50079 5.16887 2.5011 5.33376V13H1.51797C1.38876 12.9981 1.26363 13.0452 1.16773 13.1318C1.07184 13.2184 1.0123 13.3382 1.0011 13.4669C0.996557 13.5353 1.00613 13.6039 1.02921 13.6684C1.0523 13.733 1.08841 13.7921 1.1353 13.8421C1.18219 13.8921 1.23886 13.9319 1.30178 13.959C1.36471 13.9862 1.43255 14.0002 1.5011 14H15.5011C15.5696 14.0002 15.6375 13.9862 15.7004 13.959C15.7633 13.9319 15.82 13.8921 15.8669 13.8421C15.9138 13.7921 15.9499 13.733 15.973 13.6684C15.9961 13.6039 16.0056 13.5353 16.0011 13.4669C15.9899 13.3382 15.9304 13.2184 15.8345 13.1318C15.7386 13.0452 15.6134 12.9981 15.4842 13ZM5.2511 11.5C5.25125 11.5686 5.23731 11.6364 5.21013 11.6993C5.18296 11.7623 5.14314 11.8189 5.09314 11.8658C5.04315 11.9127 4.98404 11.9488 4.9195 11.9719C4.85496 11.995 4.78637 12.0046 4.71797 12C4.58913 11.9888 4.46932 11.9292 4.38268 11.8331C4.29605 11.7371 4.24903 11.6118 4.2511 11.4825V10.5169C4.24934 10.3877 4.29648 10.2627 4.38307 10.1668C4.46966 10.0709 4.58929 10.0114 4.71797 10C4.78637 9.99547 4.85496 10.005 4.9195 10.0281C4.98404 10.0512 5.04315 10.0873 5.09314 10.1342C5.14314 10.1811 5.18296 10.2378 5.21013 10.3007C5.23731 10.3636 5.25125 10.4315 5.2511 10.5V11.5ZM5.2511 8.00001C5.25125 8.06856 5.23731 8.1364 5.21013 8.19933C5.18296 8.26225 5.14314 8.31892 5.09314 8.36581C5.04315 8.4127 4.98404 8.44881 4.9195 8.4719C4.85496 8.49498 4.78637 8.50455 4.71797 8.50001C4.58918 8.48866 4.46946 8.42899 4.38285 8.333C4.29625 8.237 4.24918 8.11179 4.2511 7.98251V7.01689C4.24934 6.88772 4.29648 6.76266 4.38307 6.6668C4.46966 6.57093 4.58929 6.51136 4.71797 6.50001C4.78637 6.49547 4.85496 6.50504 4.9195 6.52813C4.98404 6.55121 5.04315 6.58732 5.09314 6.63421C5.14314 6.6811 5.18296 6.73777 5.21013 6.8007C5.23731 6.86363 5.25125 6.93147 5.2511 7.00001V8.00001ZM7.7511 11.5C7.75125 11.5686 7.73731 11.6364 7.71013 11.6993C7.68296 11.7623 7.64314 11.8189 7.59314 11.8658C7.54315 11.9127 7.48404 11.9488 7.4195 11.9719C7.35496 11.995 7.28637 12.0046 7.21797 12C7.08935 11.9888 6.96972 11.9294 6.88312 11.8336C6.79651 11.7378 6.74935 11.6129 6.7511 11.4838V10.5169C6.7495 10.3878 6.79671 10.2629 6.88328 10.1672C6.96986 10.0715 7.0894 10.012 7.21797 10.0006C7.28637 9.99609 7.35496 10.0057 7.4195 10.0288C7.48404 10.0518 7.54315 10.0879 7.59314 10.1348C7.64314 10.1817 7.68296 10.2384 7.71013 10.3013C7.73731 10.3643 7.75125 10.4321 7.7511 10.5006V11.5ZM7.7511 8.00001C7.75125 8.06856 7.73731 8.1364 7.71013 8.19933C7.68296 8.26225 7.64314 8.31892 7.59314 8.36581C7.54315 8.4127 7.48404 8.44881 7.4195 8.4719C7.35496 8.49498 7.28637 8.50455 7.21797 8.50001C7.0894 8.48867 6.96986 8.42918 6.88328 8.33345C6.79671 8.23772 6.7495 8.11282 6.7511 7.98376V7.01689C6.7495 6.88783 6.79671 6.76292 6.88328 6.66719C6.96986 6.57146 7.0894 6.51197 7.21797 6.50064C7.28637 6.4961 7.35496 6.50566 7.4195 6.52875C7.48404 6.55184 7.54315 6.58795 7.59314 6.63484C7.64314 6.68173 7.68296 6.73839 7.71013 6.80132C7.73731 6.86425 7.75125 6.93209 7.7511 7.00064V8.00001Z" fill="#E86900"/>
</g>
<defs>
<clipPath id="clip0_480_4175">
<rect width="16" height="16" fill="white" transform="translate(0.5)"/>
</clipPath>
</defs>
</svg>
